# xmcd
#
# Track frame offsets: 
#        150
#        14726
#        29160
#        42040
#        53855
#        69744
#        83858
#        98013
#        113725
#        126618
#        139811
#        151668
#        165785
#        179701
#        193620
#        203115
#        215976
#        229929
#        242218
#        255570
#        269428
#        283144
#
# Disc length: 3954 seconds
#
# Revision: 1
# Processed by: cddbd v1.5.2PL0 Copyright (c) Steve Scherf et al.
# Submitted via: ExactAudioCopy v0.99pb3
#
DISCID=500f7016
DTITLE=Fats Waller - If You Got To Ask, You Ain't Got It! - CD3 - Fats
DTITLE=Waller Sings And Plays Tin Pan Alley
DYEAR=2006
DGENRE=Jazz
TTITLE0=(I'll Be Glad When You're Dead) You Rascal You
TTITLE1=You're Not The Only Oyster In The Stew
TTITLE2=What's The Reason (I'm Not Pleasin' You)
TTITLE3=Lulu's Back In Town
TTITLE4=I'm Going To Sit Myself Right Down And Write Myself A Letter
TTITLE5=Dinah
TTITLE6=There'll Be Some Changes Made
TTITLE7=Somebody Stole My Gal
TTITLE8=Christopher Columbus
TTITLE9=It's A Sin To Tell A Lie
TTITLE10=She's Tall, She's Tan, She's Terrific
TTITLE11=The Shiek Of Araby
TTITLE12=Two Sleepy People
TTITLE13=A Good Man Is Hard To Find
TTITLE14=Hold Tight (Want Some Seafood, Mama)
TTITLE15='Taint What You Do (It's The Way That You Do It)
TTITLE16=Your Feet's Too Big
TTITLE17=Darktown Strutter's Ball
TTITLE18=I Can't Give You Anything But Love
TTITLE19=You Run Your Mouth, I'll Run My Business
TTITLE20=Let's Get Away From It All
TTITLE21='Taint Nobody's Biz-Ness If I Do
EXTD=
EXTT0=
EXTT1=
EXTT2=
EXTT3=
EXTT4=
EXTT5=
EXTT6=
EXTT7=
EXTT8=
EXTT9=
EXTT10=
EXTT11=
EXTT12=
EXTT13=
EXTT14=
EXTT15=
EXTT16=
EXTT17=
EXTT18=
EXTT19=
EXTT20=
EXTT21=
PLAYORDER=
